<svg width="146" height="94" viewBox="0 0 146 94" fill="none" xmlns="http://www.w3.org/2000/svg">
<path d="M49.936 29.544V28.68H57.184H64.456V28.776C64.488 28.888 64.608 29.92 64.816 31.872C65.056 33.872 65.184 34.904 65.2 34.968V35.064H64.336H63.472C63.472 35 63.448 34.832 63.4 34.56C63.32 33.92 63.232 33.432 63.136 33.096C62.816 31.848 62.112 31.04 61.024 30.672C60.864 30.608 60.688 30.56 60.496 30.528C60.176 30.464 59.392 30.424 58.144 30.408H56.536V33.192V35.976H56.92C57.848 35.976 58.488 35.8 58.84 35.448C59.144 35.144 59.32 34.544 59.368 33.648V33.168H60.232H61.096V36.84V40.512H60.232H59.368V40.032C59.32 39.136 59.144 38.536 58.84 38.232C58.488 37.88 57.848 37.704 56.92 37.704H56.536V40.488V43.272H58.168H59.776V44.136V45H59.44L56.824 44.952C55.304 44.936 53.88 44.936 52.552 44.952C51 44.984 50.232 45 50.248 45H49.936V44.136V43.272H51.232H52.528V36.84V30.408H51.232H49.936V29.544ZM71.7672 34.152L73.7352 34.176C75.8312 34.416 77.1672 35.208 77.7432 36.552C77.8072 36.696 77.8552 36.84 77.8872 36.984L77.9592 37.248L77.9832 40.128C77.9832 42 77.9992 42.968 78.0312 43.032C78.1592 43.16 78.5032 43.24 79.0632 43.272C79.3192 43.272 79.5032 43.304 79.6152 43.368C79.7112 43.464 79.7592 43.72 79.7592 44.136C79.7592 44.552 79.7032 44.808 79.5912 44.904C79.4312 44.968 78.9192 45 78.0552 45C77.0952 44.984 76.4632 44.928 76.1592 44.832C75.6632 44.672 75.3432 44.424 75.1992 44.088C75.1352 43.96 75.1032 43.888 75.1032 43.872C75.1032 43.856 75.0312 43.896 74.8872 43.992C74.1832 44.552 73.2392 44.92 72.0552 45.096C71.4312 45.16 70.9432 45.168 70.5912 45.12C69.1512 44.96 68.1352 44.368 67.5432 43.344C67.3992 43.104 67.2952 42.856 67.2312 42.6C67.1832 42.424 67.1592 42.2 67.1592 41.928C67.1592 41.544 67.2232 41.216 67.3512 40.944C67.5432 40.56 67.8072 40.232 68.1432 39.96C68.7032 39.528 69.4152 39.192 70.2792 38.952C71.3352 38.632 72.5912 38.44 74.0472 38.376L74.6472 38.352V37.92L74.6232 37.296V37.272C74.5272 36.6 74.1992 36.128 73.6392 35.856C73.2872 35.68 72.8312 35.592 72.2712 35.592C71.6152 35.592 71.2712 35.608 71.2392 35.64L71.3112 35.784C71.4392 36.008 71.4952 36.296 71.4792 36.648C71.4792 36.904 71.4632 37.088 71.4312 37.2C71.3352 37.488 71.1912 37.728 70.9992 37.92C70.7912 38.128 70.5432 38.28 70.2552 38.376C70.1272 38.408 69.9432 38.424 69.7032 38.424C69.4632 38.424 69.2872 38.408 69.1752 38.376C68.8712 38.28 68.6152 38.128 68.4072 37.92C68.2152 37.728 68.0712 37.488 67.9752 37.2C67.9432 37.088 67.9272 36.904 67.9272 36.648C67.9272 36.392 67.9432 36.208 67.9752 36.096C68.2152 35.216 68.9912 34.632 70.3032 34.344C70.7352 34.248 71.2232 34.184 71.7672 34.152ZM74.6472 40.944C74.6472 40.112 74.6392 39.696 74.6232 39.696C74.6072 39.696 74.5672 39.704 74.5032 39.72C73.5592 39.784 72.7352 39.952 72.0312 40.224C71.2792 40.528 70.8072 40.952 70.6152 41.496C70.5352 41.72 70.5272 42.008 70.5912 42.36C70.7512 43 71.1192 43.416 71.6952 43.608C71.7272 43.624 71.7672 43.64 71.8152 43.656C72.4072 43.752 73.0312 43.632 73.6872 43.296C73.7352 43.28 73.7832 43.256 73.8312 43.224C74.1352 43.032 74.3512 42.816 74.4792 42.576C74.5752 42.384 74.6312 42.064 74.6472 41.616V40.944ZM82.8454 34.296C84.4134 34.232 85.1734 34.2 85.1254 34.2H85.2694V35.088V35.976L85.4614 35.784C85.8614 35.368 86.3414 35.032 86.9014 34.776C87.3654 34.52 87.9094 34.344 88.5334 34.248C89.0134 34.184 89.6134 34.184 90.3334 34.248C90.3814 34.248 90.4214 34.248 90.4534 34.248C90.9814 34.312 91.4374 34.456 91.8214 34.68C92.3014 34.952 92.6454 35.328 92.8534 35.808L92.9254 35.976L93.1174 35.784C93.5334 35.368 94.0134 35.032 94.5574 34.776C95.0214 34.52 95.5654 34.344 96.1894 34.248C96.5894 34.184 97.1414 34.176 97.8454 34.224C97.9094 34.24 97.9654 34.248 98.0134 34.248C98.4934 34.296 98.9254 34.408 99.3094 34.584C100.109 34.984 100.597 35.688 100.773 36.696C100.805 36.872 100.829 38.016 100.845 40.128V43.272H101.685H102.501V44.136V45H102.285C102.301 45 101.749 44.984 100.629 44.952C99.6694 44.936 98.7094 44.936 97.7494 44.952L96.0694 45H95.8534V44.136V43.272H96.6934H97.5094V40.272C97.5094 38.192 97.5014 37.104 97.4854 37.008C97.4054 36.192 97.0614 35.744 96.4534 35.664C96.3414 35.664 96.2134 35.664 96.0694 35.664C95.3014 35.712 94.6454 36.008 94.1014 36.552C93.7174 36.936 93.4614 37.36 93.3334 37.824C93.2374 38.096 93.1894 38.784 93.1894 39.888C93.1894 40.08 93.1894 40.416 93.1894 40.896V43.272H94.0294H94.8454V44.136V45H94.6294L92.9494 44.952C91.9894 44.936 91.0294 44.936 90.0694 44.952C88.9494 44.984 88.3974 45 88.4134 45H88.1974V44.136V43.272H89.0374H89.8534V40.272C89.8534 38.192 89.8454 37.104 89.8294 37.008C89.7494 36.192 89.4054 35.744 88.7974 35.664C88.6854 35.664 88.5574 35.664 88.4134 35.664C87.6454 35.712 86.9894 36.008 86.4454 36.552C86.0614 36.936 85.8054 37.36 85.6774 37.824C85.5814 38.096 85.5334 38.784 85.5334 39.888C85.5334 40.08 85.5334 40.416 85.5334 40.896V43.272H86.3734H87.1894V44.136V45H86.9734L85.2934 44.952C84.3334 44.936 83.3734 44.936 82.4134 44.952C81.2934 44.984 80.7414 45 80.7574 45H80.5414V44.136V43.272H81.3814H82.1974V39.96C82.1974 37.752 82.1814 36.608 82.1494 36.528C82.1014 36.368 81.9974 36.264 81.8374 36.216C81.6134 36.152 81.2854 36.12 80.8534 36.12H80.5414V35.256V34.392H80.6134C80.5334 34.392 81.2774 34.36 82.8454 34.296ZM106.174 28.344C106.206 28.328 106.35 28.32 106.606 28.32C106.878 28.352 107.054 28.376 107.134 28.392C107.758 28.584 108.206 28.952 108.478 29.496C108.622 29.8 108.694 30.096 108.694 30.384C108.694 30.688 108.622 30.984 108.478 31.272C108.206 31.832 107.758 32.208 107.134 32.4C106.99 32.432 106.79 32.448 106.534 32.448C106.262 32.448 106.062 32.432 105.934 32.4C105.294 32.208 104.838 31.832 104.566 31.272C104.438 31.016 104.374 30.72 104.374 30.384C104.374 30.16 104.382 30 104.398 29.904C104.478 29.616 104.622 29.344 104.83 29.088C105.166 28.688 105.614 28.44 106.174 28.344ZM106.006 34.296C107.606 34.232 108.374 34.2 108.31 34.2H108.454V38.736V43.272H109.198H109.942V44.136V45H109.726L108.19 44.952C107.31 44.936 106.398 44.936 105.454 44.952L103.822 45H103.606V44.136V43.272H104.446H105.262V39.984C105.262 37.76 105.254 36.616 105.238 36.552C105.174 36.36 105.07 36.248 104.926 36.216C104.702 36.152 104.382 36.12 103.966 36.12H103.678V35.256V34.392H103.75L106.006 34.296ZM113.622 28.44C115.222 28.376 116.006 28.344 115.974 28.344H116.118V35.808V43.272H116.958H117.774V44.136V45H117.558L115.926 44.952C114.982 44.936 114.046 44.936 113.118 44.952L111.486 45H111.27V44.136V43.272H112.11H112.926V37.032C112.926 32.872 112.91 30.752 112.878 30.672C112.83 30.512 112.726 30.408 112.566 30.36C112.342 30.296 112.014 30.264 111.582 30.264H111.27V29.4V28.536H111.342C111.262 28.536 112.022 28.504 113.622 28.44ZM118.718 35.208V34.344H118.91L120.374 34.392C121.238 34.408 122.158 34.408 123.134 34.392L124.814 34.344H125.03V35.208V36.072H124.502C124.166 36.072 123.998 36.088 123.998 36.12L125.102 38.592C125.806 40.176 126.174 40.968 126.206 40.968L128.342 36.12C128.342 36.088 128.174 36.072 127.838 36.072H127.31V35.208V34.344H127.478L128.774 34.392C129.51 34.408 130.19 34.408 130.814 34.392C131.502 34.36 131.854 34.344 131.87 34.344H132.014V35.208V36.072H131.126H130.238L127.934 41.352C126.27 45.064 125.438 46.928 125.438 46.944C124.814 48.176 123.926 49.016 122.774 49.464C121.894 49.848 121.086 49.92 120.35 49.68C119.534 49.392 118.998 48.84 118.742 48.024C118.646 47.736 118.606 47.448 118.622 47.16C118.638 46.744 118.79 46.384 119.078 46.08C119.286 45.888 119.526 45.752 119.798 45.672C119.942 45.624 120.11 45.6 120.302 45.6C120.494 45.6 120.662 45.624 120.806 45.672C121.078 45.752 121.318 45.888 121.526 46.08C121.782 46.368 121.934 46.712 121.982 47.112V47.28H121.166H120.35V47.424C120.398 47.888 120.606 48.184 120.974 48.312C121.278 48.408 121.694 48.344 122.222 48.12C122.862 47.816 123.326 47.368 123.614 46.776L124.406 45C124.406 44.984 123.75 43.488 122.438 40.512L120.494 36.072H119.606H118.718V35.208ZM50.488 54.944V54.8H58.576H66.688V54.944L66.952 57.992C67.096 59.992 67.176 61.008 67.192 61.04V61.184H66.328C65.752 61.184 65.464 61.176 65.464 61.16C65.464 60.84 65.424 60.424 65.344 59.912C65.248 59.192 65.112 58.6 64.936 58.136C64.696 57.576 64.288 57.16 63.712 56.888C63.472 56.76 63.152 56.664 62.752 56.6C62.608 56.568 62.2 56.544 61.528 56.528H60.592V62.888V69.272H62.44H64.264V70.136V71H63.88L61.048 70.952C59.4 70.936 57.76 70.936 56.128 70.952L53.296 71H52.912V70.136V69.272H54.76H56.584V62.888V56.528H55.648C54.976 56.544 54.568 56.568 54.424 56.6C53.672 56.744 53.096 57.024 52.696 57.44C52.44 57.696 52.232 58.08 52.072 58.592C51.944 59.056 51.84 59.768 51.76 60.728C51.728 61 51.712 61.144 51.712 61.16C51.712 61.176 51.424 61.184 50.848 61.184H49.984V61.04L50.248 57.992C50.392 55.992 50.472 54.976 50.488 54.944ZM71.0033 60.296C72.5073 60.232 73.2433 60.2 73.2113 60.2H73.3553V60.824L73.3793 61.448L73.4513 61.328C73.7553 60.88 74.1633 60.56 74.6753 60.368C75.4593 60.08 76.3233 60.128 77.2673 60.512C77.4753 60.576 77.6593 60.664 77.8193 60.776C78.3633 61.144 78.6833 61.6 78.7793 62.144C78.8433 62.432 78.8273 62.704 78.7313 62.96C78.6033 63.456 78.3153 63.816 77.8673 64.04C77.5953 64.152 77.3233 64.208 77.0513 64.208C76.7473 64.208 76.4753 64.152 76.2353 64.04C75.7713 63.816 75.4673 63.456 75.3233 62.96C75.3073 62.88 75.2993 62.712 75.2993 62.456C75.2993 62.2 75.3153 62.016 75.3473 61.904C75.4113 61.76 75.4273 61.688 75.3953 61.688C75.3473 61.64 75.2033 61.688 74.9633 61.832C74.7233 61.944 74.5073 62.136 74.3153 62.408C74.0113 62.888 73.7953 63.592 73.6673 64.52C73.6513 64.68 73.6353 65.528 73.6193 67.064V69.272H74.6513H75.7073V70.136V71H75.4433L73.6193 70.952C72.5633 70.936 71.5633 70.936 70.6193 70.952C69.5473 70.984 69.0033 71 68.9873 71H68.7713V70.136V69.272H69.6113H70.4273V65.96C70.4273 63.752 70.4113 62.608 70.3793 62.528C70.3313 62.368 70.2273 62.264 70.0673 62.216C69.8433 62.152 69.5153 62.12 69.0833 62.12H68.7713V61.256V60.392H68.8433L71.0033 60.296ZM85.6825 60.152L87.2905 60.176C88.4265 60.336 89.3385 60.736 90.0265 61.376C90.8265 62.176 91.2825 63.264 91.3945 64.64C91.4425 65.232 91.3705 65.592 91.1785 65.72C91.1145 65.752 89.8985 65.768 87.5305 65.768H84.0025V66.248C84.0505 67.368 84.2745 68.152 84.6745 68.6C84.7065 68.632 84.7465 68.672 84.7945 68.72C85.2585 69.184 85.9625 69.464 86.9065 69.56C87.2745 69.592 87.5785 69.584 87.8185 69.536C88.6825 69.408 89.2905 68.976 89.6425 68.24C89.6585 68.192 89.6745 68.152 89.6905 68.12C89.7705 67.912 89.8985 67.8 90.0745 67.784C90.1545 67.768 90.3145 67.76 90.5545 67.76C90.9065 67.76 91.1145 67.776 91.1785 67.808C91.3705 67.904 91.4425 68.072 91.3945 68.312C91.2985 68.648 91.1385 68.96 90.9145 69.248C90.1945 70.24 89.0665 70.856 87.5305 71.096C87.0825 71.16 86.4825 71.168 85.7305 71.12C85.6825 71.104 85.6345 71.096 85.5865 71.096C82.9945 70.76 81.3385 69.544 80.6185 67.448C80.5225 67.128 80.4425 66.792 80.3785 66.44C80.3145 65.992 80.3145 65.464 80.3785 64.856C80.3785 64.808 80.3785 64.768 80.3785 64.736C80.5545 63.696 80.9305 62.824 81.5065 62.12C81.7145 61.832 82.0185 61.544 82.4185 61.256C83.2985 60.616 84.3865 60.248 85.6825 60.152ZM86.7625 61.64C86.5225 61.592 86.2185 61.584 85.8505 61.616C85.1305 61.744 84.6265 62.104 84.3385 62.696C84.1785 63.032 84.0745 63.52 84.0265 64.16V64.376H86.2585H88.5145L88.4905 64.256C88.3305 62.768 87.7545 61.896 86.7625 61.64ZM98.3388 60.152L99.9468 60.176C101.083 60.336 101.995 60.736 102.683 61.376C103.483 62.176 103.939 63.264 104.051 64.64C104.099 65.232 104.027 65.592 103.835 65.72C103.771 65.752 102.555 65.768 100.187 65.768H96.6588V66.248C96.7068 67.368 96.9308 68.152 97.3308 68.6C97.3628 68.632 97.4028 68.672 97.4508 68.72C97.9148 69.184 98.6188 69.464 99.5628 69.56C99.9308 69.592 100.235 69.584 100.475 69.536C101.339 69.408 101.947 68.976 102.299 68.24C102.315 68.192 102.331 68.152 102.347 68.12C102.427 67.912 102.555 67.8 102.731 67.784C102.811 67.768 102.971 67.76 103.211 67.76C103.563 67.76 103.771 67.776 103.835 67.808C104.027 67.904 104.099 68.072 104.051 68.312C103.955 68.648 103.795 68.96 103.571 69.248C102.851 70.24 101.723 70.856 100.187 71.096C99.7388 71.16 99.1388 71.168 98.3867 71.12C98.3388 71.104 98.2908 71.096 98.2428 71.096C95.6508 70.76 93.9948 69.544 93.2748 67.448C93.1788 67.128 93.0988 66.792 93.0348 66.44C92.9708 65.992 92.9708 65.464 93.0348 64.856C93.0348 64.808 93.0348 64.768 93.0348 64.736C93.2108 63.696 93.5868 62.824 94.1628 62.12C94.3708 61.832 94.6748 61.544 95.0748 61.256C95.9548 60.616 97.0428 60.248 98.3388 60.152ZM99.4188 61.64C99.1788 61.592 98.8748 61.584 98.5068 61.616C97.7868 61.744 97.2828 62.104 96.9948 62.696C96.8348 63.032 96.7308 63.52 96.6828 64.16V64.376H98.9148H101.171L101.147 64.256C100.987 62.768 100.411 61.896 99.4188 61.64Z" fill="#A8F18E"/>
<path d="M18 0L0 46.5L18 93.5L36 46.5L18 0Z" fill="#A8F18E"/>
<path d="M23.1429 47L18 0L36 47H23.1429Z" fill="#66CE90"/>
<path d="M12.8571 47L18 94L2.20152e-06 47L12.8571 47Z" fill="#66CE90"/>
<path d="M24 47L18 0L12 47H24Z" fill="#00C164"/>
<path d="M12 47L18 94L24 47L12 47Z" fill="#00C164"/>
<line y1="46.5" x2="36" y2="46.5" stroke="#A8F18E"/>
</svg>
